# File created by Blade
# Date/Time:  Tue Jan 27 17:08:52 2015
# Frame Rate: 120.000 fps
#------------------------------------------------------
:FULLY-SPECIFIED
:DEGREES
3914
root -1.361364 39.286886 -1.667335 61.530721 -32.662240 -58.929059
Spine -1.075908 20.023551 20.396389
Head -19.896177 -33.352546 35.555455
LeftShoulder -8.565476 -5.135706 12.938488
LeftArm -28.183838 -43.987986 -25.195636
LeftForeArm -2.747680 -0.000000 133.337225
LeftHand -28.016541 -0.000000 19.821806
LeftHandThumb1 -26.253704 0.000000 33.147579
RightShoulder 0.220211 -19.711947 2.535893
RightArm 30.771129 -23.876168 46.838558
RightForeArm 153.571484 0.000000 74.680915
RightHand 3.696764 -0.000000 5.043302
RightHandThumb1 -24.326973 -0.000000 -32.862282
LeftUpLeg -23.363098 24.397904 38.584854
LeftLeg 16.218764 -0.000000 -0.000000
LeftFoot -17.202560 28.607258 -3.827646
LeftToeBase 11.234441 -0.000000 -0.000000
RightUpLeg -26.010526 -30.533781 -13.138961
RightLeg 97.811686 -0.000000 -0.000000
RightFoot 3.815336 -12.721315 15.824115
RightToeBase 6.888626 -0.000000 -0.000000
3915
root -1.368770 39.282013 -1.657300 61.589607 -32.751322 -58.867303
Spine -1.108834 20.043105 20.243154
Head -19.868354 -32.913392 35.359509
LeftShoulder -8.545713 -5.078086 12.922976
LeftArm -28.165990 -43.980504 -25.374463
LeftForeArm -2.576918 -0.000000 133.381803
LeftHand -27.888941 -0.000000 20.123068
LeftHandThumb1 -26.253704 0.000000 33.147579
RightShoulder 0.210489 -19.732899 2.538182
RightArm 30.830128 -23.875369 46.851453
RightForeArm 153.686632 -0.000000 74.702430
RightHand 3.619762 -0.000000 5.085752
RightHandThumb1 -24.326973 -0.000000 -32.862282
LeftUpLeg -23.403630 24.411384 38.463102
LeftLeg 16.195451 -0.000000 -0.000000
LeftFoot -17.283924 28.554481 -4.113301
LeftToeBase 11.253254 -0.000000 -0.000000
RightUpLeg -25.733412 -30.457140 -12.972722
RightLeg 97.022362 -0.000000 -0.000000
RightFoot 4.201895 -12.845920 15.213767
RightToeBase 6.010529 -0.000000 -0.000000
3916
root -1.376309 39.276062 -1.646588 61.628984 -32.854543 -58.779420
Spine -1.135709 20.066899 20.056886
Head -19.784546 -32.555273 35.059249
LeftShoulder -8.494716 -5.043687 12.920470
LeftArm -28.178702 -44.024030 -25.543183
LeftForeArm -2.331164 0.000000 133.456621
LeftHand -27.912852 -0.000000 20.320515
LeftHandThumb1 -26.253704 0.000000 33.147579
RightShoulder 0.191437 -19.698739 2.539616
RightArm 30.843173 -23.911519 46.902391
RightForeArm 153.762875 -0.000000 74.722272
RightHand 3.594844 -0.000000 5.154563
RightHandThumb1 -24.326973 -0.000000 -32.862282
LeftUpLeg -23.451498 24.440823 38.307719
LeftLeg 16.172845 -0.000000 -0.000000
LeftFoot -17.379644 28.455248 -4.420779
LeftToeBase 11.259189 -0.000000 -0.000000
RightUpLeg -25.432355 -30.358970 -12.826819
RightLeg 96.155543 -0.000000 -0.000000
RightFoot 4.410632 -12.952221 14.791350
RightToeBase 5.508852 -0.000000 -0.000000
3917
root -1.385416 39.270786 -1.637398 61.651643 -32.941394 -58.686618
Spine -1.151124 20.082052 19.879528
Head -19.733107 -32.122433 34.775792
LeftShoulder -8.475555 -5.019126 12.930214
LeftArm -28.121021 -44.081564 -25.766452
LeftForeArm -2.120142 -0.000000 133.558089
LeftHand -27.940679 -0.000000 20.527730
LeftHandThumb1 -26.253704 0.000000 33.147579
RightShoulder 0.212844 -19.710720 2.511263
RightArm 30.826381 -23.891348 47.016034
RightForeArm 153.806924 0.000000 74.761724
RightHand 3.588486 0.000000 5.255497
RightHandThumb1 -24.326973 -0.000000 -32.862282
LeftUpLeg -23.497746 24.474250 38.168404
LeftLeg 16.159078 -0.000000 -0.000000
LeftFoot -17.521284 28.293446 -4.805757
LeftToeBase 11.336244 -0.000000 -0.000000
RightUpLeg -25.091721 -30.240179 -12.660049
RightLeg 95.206226 -0.000000 -0.000000
RightFoot 4.463711 -13.053340 14.391776
RightToeBase 5.313378 -0.000000 -0.000000
3918
root -1.394615 39.264337 -1.628299 61.654310 -33.028864 -58.554111
Spine -1.178268 20.081003 19.677840
Head -19.626247 -31.708835 34.414627
LeftShoulder -8.416946 -5.003660 12.945328
LeftArm -28.119328 -44.139098 -25.952545
LeftForeArm -1.827939 -0.000000 133.671637
LeftHand -27.920222 -0.000000 20.918429
LeftHandThumb1 -26.253704 0.000000 33.147579
RightShoulder 0.224536 -19.731994 2.480141
RightArm 30.831465 -23.868489 47.124579
RightForeArm 153.876387 -0.000000 74.790897
RightHand 3.561796 -0.000000 5.299773
RightHandThumb1 -24.326973 -0.000000 -32.862282
LeftUpLeg -23.565588 24.495059 38.001712
LeftLeg 16.143756 -0.000000 -0.000000
LeftFoot -17.668936 28.087586 -5.255369
LeftToeBase 11.237970 -0.000000 -0.000000
RightUpLeg -24.733240 -30.076665 -12.499372
RightLeg 94.162482 -0.000000 -0.000000
RightFoot 4.003161 -13.151447 14.981814
RightToeBase 6.389851 -0.000000 -0.000000
3919
root -1.403677 39.257476 -1.618608 61.645422 -33.116519 -58.421988
Spine -1.178520 20.088850 19.487046
Head -19.523144 -31.209775 33.995914
LeftShoulder -8.390375 -4.991284 12.939484
LeftArm -28.048012 -44.206207 -26.166180
LeftForeArm -1.480335 -0.000000 133.779410
LeftHand -27.946605 -0.000000 21.194698
LeftHandThumb1 -26.253704 0.000000 33.147579
RightShoulder 0.231015 -19.728364 2.440570
RightArm 30.822069 -23.866727 47.217616
RightForeArm 153.962023 -0.000000 74.821490
RightHand 3.540755 -0.000000 5.380792
RightHandThumb1 -24.326973 -0.000000 -32.862282
LeftUpLeg -23.624524 24.536964 37.825798
LeftLeg 16.121173 -0.000000 -0.000000
LeftFoot -17.814828 27.838316 -5.667466
LeftToeBase 11.182433 -0.000000 -0.000000
RightUpLeg -24.336496 -29.911835 -12.316917
RightLeg 92.999543 -0.000000 -0.000000
RightFoot 4.064083 -13.272733 14.410027
RightToeBase 5.565113 -0.000000 -0.000000
3920
root -1.413030 39.249251 -1.611119 61.595646 -33.227034 -58.246760
Spine -1.177094 20.107910 19.229036
Head -19.412913 -30.763267 33.597260
LeftShoulder -8.310230 -4.950392 12.952373
LeftArm -27.986616 -44.341353 -26.367070
LeftForeArm -1.295896 -0.000000 133.917104
LeftHand -27.999979 -0.000000 21.439828
LeftHandThumb1 -26.253704 0.000000 33.147579
RightShoulder 0.288564 -19.734158 2.368291
RightArm 30.745859 -23.819556 47.421425
RightForeArm 153.983445 0.000000 74.845551
RightHand 3.463828 -0.000000 5.420953
RightHandThumb1 -24.326973 -0.000000 -32.862282
LeftUpLeg -23.684716 24.554791 37.626122
LeftLeg 16.114046 -0.000000 -0.000000
LeftFoot -17.989522 27.565744 -6.187700
LeftToeBase 11.006824 -0.000000 -0.000000
RightUpLeg -23.927400 -29.713947 -12.151912
RightLeg 91.768540 -0.000000 -0.000000
RightFoot 3.954399 -13.405643 14.254673
RightToeBase 5.549537 -0.000000 -0.000000
